<?xml version="1.0" encoding="UTF-8" standalone="no"?>
<svg width="198px" height="44px" viewBox="0 0 198 44" version="1.1" xmlns="http://www.w3.org/2000/svg" xmlns:xlink="http://www.w3.org/1999/xlink" xmlns:sketch="http://www.bohemiancoding.com/sketch/ns">
    <!-- Generator: Sketch 3.5.1 (25234) - http://www.bohemiancoding.com/sketch -->
    <title>logo</title>
    <desc>Created with Sketch.</desc>
    <defs></defs>
    <g id="Landing-Page" stroke="none" stroke-width="1" fill="none" fill-rule="evenodd" sketch:type="MSPage">
        <g id="Desktop" sketch:type="MSArtboardGroup" transform="translate(-542.000000, -239.000000)" fill="#222222">
            <g id="logo-+-Header" sketch:type="MSLayerGroup" transform="translate(205.000000, 240.000000)">
                <g id="logo" transform="translate(338.000000, 0.000000)">
                    <g id="symbol" stroke="#000000" stroke-width="0.7" sketch:type="MSShapeGroup">
                        <path d="M1.65953776,14.4444444 L2.80803667,15.8187863 L3.6612073,17.3867738 L4.1869262,19.0878715 L4.364814,20.8571352 L4.1869262,22.6267381 L3.6612073,24.3276662 L2.80803667,25.8959929 L1.65953776,27.2696564 L-4.88498131e-15,25.6402856 L0.961457664,24.4561981 L1.63121387,23.0913521 L1.97420919,21.6147613 L1.97420919,20.0998483 L1.63121387,18.6230879 L0.961457664,17.2582419 L-4.88498131e-15,16.0738153 L1.65953776,14.4444444" id="Shape"></path>
                        <path d="M6.64930205,9.55555556 L8.16342085,11.2714056 L9.41381666,13.181071 L10.3745835,15.2460598 L11.0256874,17.4244891 L11.3546935,19.6712539 L11.3546935,21.941419 L11.0256874,24.1886925 L10.3745835,26.3667827 L9.41381666,28.4314324 L8.16342085,30.3410977 L6.64930205,32.0571174 L4.98976429,30.4277465 L6.40267702,28.8043106 L7.53908648,26.9838376 L8.37118689,25.0109237 L8.87842619,22.934913 L9.04888761,20.8063365 L8.87842619,18.6779295 L8.37118689,16.6017492 L7.53908648,14.6290049 L6.40267702,12.8087015 L4.98976429,11.1852655 L6.64930205,9.55555556" id="Shape"></path>
                        <path d="M11.6390663,4.66666667 L13.6376272,6.90444444 L15.3222074,9.37910754 L16.6624106,12.0484337 L17.636994,14.8664703 L18.2281687,17.7855689 L18.4262632,20.7553681 L18.2281687,23.7255065 L17.636994,26.6440964 L16.6624106,29.4626417 L15.3222074,32.1316287 L13.6376272,34.6062918 L11.6390663,36.8440696 L9.97952859,35.2148684 L11.77585,33.2036323 L13.2889325,30.9794199 L14.4940792,28.5805533 L15.3700471,26.0478983 L15.9012926,23.4246943 L16.0791804,20.7553681 L15.9012926,18.0865506 L15.3700471,15.462838 L14.4940792,12.930183 L13.2889325,10.5311468 L11.77585,8.30710397 L9.97952859,6.29620705 L11.6390663,4.66666667" id="Shape"></path>
                        <path d="M16.6288306,0 L18.8812702,2.47449353 L20.8369998,5.18129407 L22.4723586,8.08580991 L23.7654129,11.1520928 L24.70131,14.3409728 L25.2672696,17.6129407 L25.4574195,20.9264525 L25.2672696,24.2401339 L24.70131,27.5121017 L23.7654129,30.7009817 L22.4723586,33.7669255 L20.8369998,36.6716109 L18.8812702,39.378581 L16.6288306,41.852905 L14.9692929,40.2235341 L17.0462625,37.9418385 L18.8498376,35.4456403 L20.3573935,32.7671575 L21.550278,29.9399643 L22.4132929,26.9989915 L22.9355577,23.9820527 L23.1103368,20.9264525 L22.9355577,17.8708523 L22.4132929,14.8537439 L21.550278,11.9129407 L20.3573935,9.08574743 L18.8498376,6.40709505 L17.0462625,3.91140562 L14.9692929,1.62920125 L16.6288306,0" id="Shape"></path>
                        <path d="M53.3510618,14.4444444 L54.4995607,15.8187863 L55.3527313,17.3867738 L55.8784502,19.0878715 L56.056338,20.8571352 L55.8784502,22.6267381 L55.3527313,24.3276662 L54.4995607,25.8959929 L53.3510618,27.2696564 L51.691524,25.6402856 L52.6529817,24.4561981 L53.3227379,23.0913521 L53.6657332,21.6147613 L53.6657332,20.0998483 L53.3227379,18.6230879 L52.6529817,17.2582419 L51.691524,16.0738153 L53.3510618,14.4444444" id="Shape" transform="translate(53.873931, 20.857050) scale(-1, 1) translate(-53.873931, -20.857050) "></path>
                        <path d="M46.3611823,9.55555556 L47.8753011,11.2714056 L49.1256969,13.181071 L50.0864638,15.2460598 L50.7375677,17.4244891 L51.0665737,19.6712539 L51.0665737,21.941419 L50.7375677,24.1886925 L50.0864638,26.3667827 L49.1256969,28.4314324 L47.8753011,30.3410977 L46.3611823,32.0571174 L44.7016446,30.4277465 L46.1145573,28.8043106 L47.2509667,26.9838376 L48.0830672,25.0109237 L48.5903064,22.934913 L48.7607679,20.8063365 L48.5903064,18.6779295 L48.0830672,16.6017492 L47.2509667,14.6290049 L46.1145573,12.8087015 L44.7016446,11.1852655 L46.3611823,9.55555556" id="Shape" transform="translate(47.884109, 20.806336) scale(-1, 1) translate(-47.884109, -20.806336) "></path>
                        <path d="M39.2896126,4.66666667 L41.2881734,6.90444444 L42.9727536,9.37910754 L44.3129569,12.0484337 L45.2875403,14.8664703 L45.878715,17.7855689 L46.0768094,20.7553681 L45.878715,23.7255065 L45.2875403,26.6440964 L44.3129569,29.4626417 L42.9727536,32.1316287 L41.2881734,34.6062918 L39.2896126,36.8440696 L37.6300749,35.2148684 L39.4263962,33.2036323 L40.9394788,30.9794199 L42.1446255,28.5805533 L43.0205934,26.0478983 L43.5518389,23.4246943 L43.7297267,20.7553681 L43.5518389,18.0865506 L43.0205934,15.462838 L42.1446255,12.930183 L40.9394788,10.5311468 L39.4263962,8.30710397 L37.6300749,6.29620705 L39.2896126,4.66666667" id="Shape" transform="translate(41.853442, 20.755368) scale(-1, 1) translate(-41.853442, -20.755368) "></path>
                        <path d="M32.2584563,0 L34.5108958,2.47449353 L36.4666254,5.18129407 L38.1019842,8.08580991 L39.3950385,11.1520928 L40.3309356,14.3409728 L40.8968952,17.6129407 L41.0870451,20.9264525 L40.8968952,24.2401339 L40.3309356,27.5121017 L39.3950385,30.7009817 L38.1019842,33.7669255 L36.4666254,36.6716109 L34.5108958,39.378581 L32.2584563,41.852905 L30.5989185,40.2235341 L32.6758881,37.9418385 L34.4794632,35.4456403 L35.9870191,32.7671575 L37.1799036,29.9399643 L38.0429185,26.9989915 L38.5651833,23.9820527 L38.7399624,20.9264525 L38.5651833,17.8708523 L38.0429185,14.8537439 L37.1799036,11.9129407 L35.9870191,9.08574743 L34.4794632,6.40709505 L32.6758881,3.91140562 L30.5989185,1.62920125 L32.2584563,0" id="Shape" transform="translate(35.842982, 20.926452) scale(-1, 1) translate(-35.842982, -20.926452) "></path>
                    </g>
                    <text id="echotags" sketch:type="MSTextLayer" font-family="Roboto" font-size="31.8181818" font-weight="normal">
                        <tspan x="67.2676056" y="30">echotags</tspan>
                    </text>
                </g>
            </g>
        </g>
    </g>
</svg>